<?xml version="1.0" encoding="UTF-8"?>
<svg width="32" height="32" version="1.1" xml:space="preserve" xmlns="http://www.w3.org/2000/svg"><path d="m15 0c-1.108 0-2 0.88285-2 1.9805v7.6543l13.85 13.766a9.8967 8.8836 0 0 0 0.13672-1.4004 9.8967 8.8836 0 0 0-0.005859-0.30469c0.011705-0.08707 0.019531-0.1753 0.019531-0.26562v-13.449c0-1.0976-0.892-1.9805-2-1.9805s-2 0.88285-2 1.9805v5.1191h-1v-10.119c0-1.0976-0.892-1.9805-2-1.9805s-2 0.88285-2 1.9805v10.119h-1v-11.119c0-1.0976-0.892-1.9805-2-1.9805zm-5 1c-1.108 0-2 0.88285-2 1.9805v1.6855l4 3.9746v-5.6602c0-1.0976-0.892-1.9805-2-1.9805zm-7.0215 12c-0.0091 1.57e-4 -0.0182 0.0017-0.02734 2e-3 -0.03512 0.0011-0.07043 0.0049-0.10547 0.0078-0.02541 0.0021-0.0508 0.0027-0.07617 0.0059-0.04464 0.0054-0.08855 0.01499-0.13281 0.02344-0.0182 0.0035-0.03655 0.0058-0.05469 0.0098-0.04063 0.0089-0.08097 0.01975-0.12109 0.03125-0.02343 0.0067-0.04704 0.0119-0.07031 0.01953-0.05683 0.01856-0.11264 0.04069-0.16797 0.06445-0.04691 0.02016-0.09309 0.04252-0.13867 0.06641-0.01879 0.0099-0.03805 0.0188-0.05664 0.0293-0.04616 0.02611-0.09035 0.05591-0.13477 0.08594-0.0083 0.0056-0.01713 0.0099-0.02539 0.01563-0.0012 8.26e-4 -0.0027 0.0011-0.0039 2e-3 -0.03597 0.02523-0.06889 0.05419-0.10352 0.08203-0.02146 0.0171-0.04386 0.03299-0.06445 0.05078-0.0278 0.02428-0.05529 0.05012-0.08203 0.07617-0.01984 0.01915-0.03969 0.03878-0.05859 0.05859-0.0048 0.0051-0.01087 0.0086-0.01563 0.01367-0.01274 0.01372-0.02287 0.029-0.03516 0.04297-0.03327 0.03762-0.06564 0.07563-0.0957 0.11523-0.04069 0.05362-0.07855 0.1092-0.11328 0.16602-0.03322 0.05434-0.06411 0.10919-0.0918 0.16602-0.0041 0.0084-0.0077 0.01695-0.01172 0.02539-0.02512 0.05346-0.04816 0.1069-0.06836 0.16211-0.01999 0.05464-0.03763 0.11001-0.05273 0.16602-0.0055 0.02005-0.0089 0.04038-0.01367 0.06055-0.01074 0.04541-0.02177 0.09071-0.0293 0.13672-0.0025 0.01499-0.0037 0.02989-0.0059 0.04492-0.0061 0.04341-0.01242 0.08712-0.01563 0.13086-2e-3 0.02664-9.53e-4 0.0534-2e-3 0.08008-0.0013 0.03896-3e-3 0.07815-2e-3 0.11719 0.0011 0.04739 0.0053 0.0954 0.0098 0.14258 5.12e-4 0.0052-5.54e-4 0.01046 0 0.01563 0.0062 0.06024 0.01562 0.12019 0.02734 0.17969 7.84e-4 0.0039 0.0011 0.0078 2e-3 0.01172 0.01265 0.06225 0.03015 0.12263 0.04883 0.18359 0.06773 0.22108 0.17385 0.43103 0.32031 0.62109l7.6055 10.969c0.12887 0.18586 0.28453 0.34049 0.45703 0.4668a9.8967 8.8836 0 0 0 7.6172 3.2344 9.8967 8.8836 0 0 0 6.4395-2.1484l-15.529-15.438v3.6152l-3.5527-3.2969c-0.17104-0.18038-0.37168-0.32195-0.58789-0.42383-0.05889-0.02775-0.11858-0.05249-0.17969-0.07422-0.06004-0.02135-0.11992-0.04119-0.18164-0.05664h-2e-3c-0.0012-3.13e-4 -0.0027 3.1e-4 -0.0039 0-0.0546-0.0135-0.11045-0.02632-0.16602-0.03516-0.02906-0.0047-0.05869-0.0083-0.08789-0.01172-0.02989-0.0034-0.05979-0.0058-0.08984-0.0078-0.03525-0.0025-0.07015-0.0033-0.10547-0.0039-0.0215-3.25e-4 -0.04292-0.0023-0.06445-2e-3zm1.6066-9.3111-1.7676 1.7676 24.734 24.736 1.7695-1.7676z" style="fill:#222"/></svg>
